<?xml version="1.0" encoding="UTF-8" standalone="no"?>
<!-- Created with Inkscape (http://www.inkscape.org/) -->

<svg
   width="210mm"
   height="297mm"
   viewBox="0 0 210 297"
   version="1.1"
   id="svg5"
   xmlns:xlink="http://www.w3.org/1999/xlink"
   xmlns="http://www.w3.org/2000/svg"
   xmlns:svg="http://www.w3.org/2000/svg">
  <defs
     id="defs2">
    <clipPath
       clipPathUnits="userSpaceOnUse"
       id="clipPath5083">
      <circle
         style="display:none;fill:#3e0e26;fill-opacity:1;stroke:#69a800;stroke-width:0.264583;stroke-opacity:0.190299"
         id="circle5085"
         cx="105.89523"
         cy="142.82509"
         r="4.4493794"
         d="m 110.34461,142.82509 a 4.4493794,4.4493794 0 0 1 -4.44938,4.44938 4.4493794,4.4493794 0 0 1 -4.44938,-4.44938 4.4493794,4.4493794 0 0 1 4.44938,-4.44938 4.4493794,4.4493794 0 0 1 4.44938,4.44938 z" />
      <path
         id="lpe_path-effect5087"
         style="fill:#3e0e26;fill-opacity:1;stroke:#69a800;stroke-width:0.264583;stroke-opacity:0.190299"
         class="powerclip"
         d="M 1.9867194,38.916575 H 209.80375 V 246.7336 H 1.9867194 Z M 110.34461,142.82509 a 4.4493794,4.4493794 0 0 0 -4.44938,-4.44938 4.4493794,4.4493794 0 0 0 -4.44938,4.44938 4.4493794,4.4493794 0 0 0 4.44938,4.44938 4.4493794,4.4493794 0 0 0 4.44938,-4.44938 z" />
    </clipPath>
    <clipPath
       clipPathUnits="userSpaceOnUse"
       id="clipPath5083-3">
      <circle
         style="display:none;fill:#3e0e26;fill-opacity:1;stroke:#69a800;stroke-width:0.264583;stroke-opacity:0.190299"
         id="circle5085-8"
         cx="105.89523"
         cy="142.82509"
         r="4.4493794"
         d="m 110.34461,142.82509 a 4.4493794,4.4493794 0 0 1 -4.44938,4.44938 4.4493794,4.4493794 0 0 1 -4.44938,-4.44938 4.4493794,4.4493794 0 0 1 4.44938,-4.44938 4.4493794,4.4493794 0 0 1 4.44938,4.44938 z" />
      <path
         id="lpe_path-effect5087-5"
         style="fill:#3e0e26;fill-opacity:1;stroke:#69a800;stroke-width:0.264583;stroke-opacity:0.190299"
         class="powerclip"
         d="M 1.9867194,38.916575 H 209.80375 V 246.7336 H 1.9867194 Z M 110.34461,142.82509 a 4.4493794,4.4493794 0 0 0 -4.44938,-4.44938 4.4493794,4.4493794 0 0 0 -4.44938,4.44938 4.4493794,4.4493794 0 0 0 4.44938,4.44938 4.4493794,4.4493794 0 0 0 4.44938,-4.44938 z" />
    </clipPath>
    <clipPath
       clipPathUnits="userSpaceOnUse"
       id="clipath_lpe_path-effect5087-1">
      <circle
         style="display:none;fill:#3e0e26;fill-opacity:1;stroke:#69a800;stroke-width:0.264583;stroke-opacity:0.190299"
         id="circle7613"
         cx="105.89523"
         cy="142.82509"
         r="4.4493794"
         d="m 110.34461,142.82509 a 4.4493794,4.4493794 0 0 1 -4.44938,4.44938 4.4493794,4.4493794 0 0 1 -4.44938,-4.44938 4.4493794,4.4493794 0 0 1 4.44938,-4.44938 4.4493794,4.4493794 0 0 1 4.44938,4.44938 z" />
      <path
         id="lpe_path-effect5087-1"
         style="fill:#3e0e26;fill-opacity:1;stroke:#69a800;stroke-width:0.264583;stroke-opacity:0.190299"
         class="powerclip"
         d="M 11.097308,48.027163 H 200.69316 V 237.62301 H 11.097308 Z m 99.247302,94.797927 a 4.4493794,4.4493794 0 0 0 -4.44938,-4.44938 4.4493794,4.4493794 0 0 0 -4.44938,4.44938 4.4493794,4.4493794 0 0 0 4.44938,4.44938 4.4493794,4.4493794 0 0 0 4.44938,-4.44938 z" />
    </clipPath>
  </defs>
  <g
     id="layer1">
    <path
       style="fill:#f4ba26;fill-opacity:1;stroke:#69a800;stroke-width:0.264583;stroke-opacity:0.190299"
       id="path2885"
       clip-path="url(#clipPath5083)"
       d="M 204.67146,142.82509 A 98.776222,98.776222 0 0 1 105.89523,241.60131 98.776222,98.776222 0 0 1 7.1190109,142.82509 98.776222,98.776222 0 0 1 105.89523,44.048866 98.776222,98.776222 0 0 1 204.67146,142.82509 Z" />
    <path
       style="fill:none;fill-opacity:1;stroke:none;stroke-width:0.264583;stroke-opacity:0.962687"
       id="path2885-2"
       clip-path="url(#clipath_lpe_path-effect5087-1)"
       transform="matrix(-0.90630778,-0.42261827,-0.42261827,0.90630778,260.65215,57.961646)"
       d="M 195.56087,142.82509 A 89.665634,89.665634 0 0 1 105.89523,232.49072 89.665634,89.665634 0 0 1 16.229599,142.82509 89.665634,89.665634 0 0 1 105.89523,53.159454 89.665634,89.665634 0 0 1 195.56087,142.82509 Z" />
    <circle
       style="fill:#3eba26;fill-opacity:1;stroke:#69a800;stroke-width:0.264583;stroke-opacity:0.190299"
       id="path4343"
       cx="-200.22208"
       cy="204.67146"
       r="34.705158" />
    <text
       xml:space="preserve"
       style="font-style:normal;font-variant:normal;font-weight:normal;font-stretch:normal;font-size:50.8px;font-family:Krungthep;-inkscape-font-specification:Krungthep;fill:#16183a;stroke:#000000;stroke-width:0.264583;stroke-opacity:0.190299"
       x="34.482693"
       y="118.04871"
       id="text186"><tspan
         id="tspan184"
         x="34.482693"
         y="118.04871"
         style="font-style:normal;font-variant:normal;font-weight:normal;font-stretch:normal;font-size:50.8px;font-family:Krungthep;-inkscape-font-specification:Krungthep;stroke-width:0.264583">N</tspan></text>
    <text
       xml:space="preserve"
       style="font-style:normal;font-variant:normal;font-weight:normal;font-stretch:normal;font-size:25.4px;font-family:Krungthep;-inkscape-font-specification:Krungthep;fill:#16183a;stroke:#000000;stroke-width:0.264583;stroke-opacity:0.190299"
       x="73.9375"
       y="98.998703"
       id="text240"><tspan
         id="tspan238"
         x="73.9375"
         y="98.998703"
         style="font-size:25.4px;stroke-width:0.264583">3</tspan></text>
    <text
       xml:space="preserve"
       style="font-style:normal;font-variant:normal;font-weight:normal;font-stretch:normal;font-size:25.4px;font-family:Krungthep;-inkscape-font-specification:Krungthep;fill:#3eba26;fill-opacity:1;stroke:#69a800;stroke-width:0.264583;stroke-opacity:0.190299"
       x="75.378654"
       y="117.82547"
       id="text4917"><tspan
         style="font-style:normal;font-variant:normal;font-weight:normal;font-stretch:normal;font-size:25.4px;font-family:'Savoye LET';-inkscape-font-specification:'Savoye LET';fill:#3e0e26;fill-opacity:1;stroke-width:0.264583"
         x="75.378654"
         y="117.82547"
         id="tspan4921">Nash's Nick Nacks</tspan></text>
    <text
       xml:space="preserve"
       style="font-style:normal;font-variant:normal;font-weight:normal;font-stretch:normal;font-size:16.9333px;font-family:'Savoye LET';-inkscape-font-specification:'Savoye LET';fill:#3e0e26;fill-opacity:1;stroke:#69a800;stroke-width:0.264583;stroke-opacity:0.190299"
       id="text5093"><textPath
         xlink:href="#path2885-2"
         id="textPath8403"><tspan
           id="tspan5091"
           style="font-style:normal;font-variant:normal;font-weight:normal;font-stretch:normal;font-size:16.9333px;font-family:Skia;-inkscape-font-specification:Skia;stroke-width:0.264583">vintage vinyl - memorabilia - funko pops - toys </tspan></textPath></text>
  </g>
</svg>
